<svg width="12" height="20" viewBox="0 0 12 20" fill="none" xmlns="http://www.w3.org/2000/svg">
<path d="M8.0898 14.5334C9.14184 14.2938 10.1548 13.8772 11.0871 13.2912C11.7928 12.8459 12.0063 11.9137 11.561 11.2054C11.1157 10.4971 10.1835 10.2835 9.47516 10.7288C7.36066 12.0595 4.6394 12.0569 2.52489 10.7288C1.81661 10.2835 0.884329 10.4971 0.439033 11.2054C-0.00626324 11.9111 0.207271 12.8459 0.912974 13.2912C1.84523 13.8772 2.85822 14.2938 3.91026 14.5334L1.02755 17.4187C0.436455 18.0098 0.436455 18.9655 1.02755 19.5567C1.32442 19.8509 1.70982 19.9993 2.09522 19.9993C2.48323 19.9993 2.86863 19.8509 3.16552 19.5567L6.00133 16.7208L8.83716 19.5567C9.42829 20.1478 10.384 20.1478 10.9751 19.5567C11.5662 18.9655 11.5662 18.0072 10.9751 17.4187L8.0898 14.5334ZM6.00133 3.02594C7.181 3.02594 8.1393 3.98425 8.1393 5.16389C8.1393 6.34094 7.181 7.29924 6.00133 7.29924C4.82432 7.29924 3.86339 6.34094 3.86339 5.16389C3.86339 3.98425 4.82432 3.02594 6.00133 3.02594ZM6.00133 10.3226C8.84761 10.3226 11.1626 8.00755 11.1626 5.16387C11.1626 2.31503 8.84761 0 6.00133 0C3.15508 0 0.840086 2.31503 0.840086 5.16129C0.840086 8.00755 3.15508 10.3226 6.00133 10.3226Z" fill="#ee8208"/>
</svg>
