<svg width="22" height="14" viewBox="0 0 22 14" fill="none" xmlns="http://www.w3.org/2000/svg">
<path d="M21.8234 11.9493C21.5281 11.418 19.9227 9.70191 19.5772 9.37275C19.1067 8.92464 18.1708 8.27297 18.4883 7.5059C18.5799 7.26926 18.924 6.76951 19.5197 6.00596C19.8331 5.60131 20.0813 5.27699 20.2646 5.03265C21.5865 3.2767 22.0353 1.9495 21.9244 1.66447C21.8135 1.37944 21.4515 1.33425 20.9227 1.33425L17.5262 1.35703C17.0707 1.35703 16.9069 1.52427 16.8044 1.78089C16.445 2.70463 16.0365 3.56348 15.578 4.35738C15.2952 4.83078 15.0356 5.24105 14.7985 5.58843C14.5617 5.93569 14.3631 6.19155 14.2027 6.35555C13.6607 6.90978 13.0128 7.10615 12.8847 6.10355C12.8619 5.92402 12.8484 5.7696 12.8446 5.63977C12.841 5.5101 12.8427 5.32669 12.8504 5.09005C12.8584 4.85329 12.8619 4.69309 12.8619 4.6091C12.8619 4.31896 12.8676 4.00407 12.8789 3.66435C12.8905 3.32463 12.8999 3.05546 12.9077 2.85716C12.9155 2.65867 12.9191 2.44866 12.9191 2.22726C12.9191 2.00586 12.9056 1.83223 12.8789 1.70621C12.8526 1.58035 12.8122 1.45818 12.7589 1.33974C12.7053 1.22142 12.6269 1.12989 12.524 1.06492C12.4209 1.00002 12.2927 0.948522 12.1401 0.910259C11.7351 0.818691 11.2194 0.769157 10.5928 0.761456C9.17178 0.746215 8.2587 0.837903 7.85376 1.0364C7.69332 1.12027 7.54813 1.23486 7.41832 1.37981C7.28076 1.54782 7.26157 1.63951 7.36088 1.65459C8.10955 1.76665 8.42048 2.13408 8.56433 2.81124C8.78467 3.85002 8.72088 4.9637 8.55855 6.006C8.46668 6.59588 8.17225 7.21386 7.50988 6.75026C7.35715 6.64333 7.19863 6.49645 7.03434 6.30938C6.87004 6.12228 6.68475 5.86081 6.47839 5.52494C5.77321 4.37632 5.15764 3.13618 4.65634 1.88333C4.53114 1.5546 4.18299 1.31082 3.87705 1.31082L0.736903 1.3336C0.41602 1.3336 0.198298 1.40624 0.0836571 1.55131L0.0377765 1.61994C0.0148563 1.65816 0.0032959 1.71921 0.0032959 1.80323C0.0032959 1.88722 0.0262161 1.9903 0.0720966 2.11235C0.530501 3.18886 1.029 4.22707 1.56761 5.22714C2.10621 6.2272 2.57425 7.03278 2.97144 7.64315C3.36871 8.25396 3.77365 8.83044 4.18625 9.37231C4.59886 9.91438 4.87197 10.2618 5.0056 10.4144C5.13939 10.5673 5.24447 10.6816 5.32086 10.7579L5.60742 11.0327C5.79079 11.2159 6.06005 11.4354 6.41533 11.6911C6.77069 11.947 7.16411 12.1988 7.59578 12.4471C8.02753 12.6951 8.52981 12.8974 9.10289 13.0538C9.6759 13.2105 10.2336 13.2733 10.7761 13.243H12.0941C12.3614 13.2199 12.5639 13.1359 12.7015 12.991L12.7471 12.9336C12.7778 12.888 12.8065 12.8172 12.833 12.722C12.8598 12.6266 12.8731 12.5214 12.8731 12.4071C12.8653 12.0789 12.8903 11.7831 12.9475 11.5197C13.0046 11.2564 13.0697 11.0579 13.1425 10.9243C13.4144 10.4254 13.8023 10.1818 14.323 10.5581C14.5714 10.7375 14.8043 10.959 15.0222 11.2223C15.24 11.4858 15.5016 11.7814 15.8072 12.1096C16.256 12.5917 16.8915 13.232 17.6038 13.232C18.2803 13.232 19.9142 13.2606 21.01 13.2435C21.5909 13.2435 21.9113 13.0138 21.9727 12.7853C22.045 12.5157 21.9663 12.1856 21.8234 11.9493Z" fill="#0D4CD3"/>
</svg>
